Coordinates
version=1
nRows=12
nColumns=46
inDegrees=yes

Units are S.I. units (second, meters, Newtons, ...)
Angles are in degrees.

endheader
time	pelvis_tilt	pelvis_list	pelvis_rotation	pelvis_tx	pelvis_ty	pelvis_tz	bb_angle	bb_tx	bb_ty	bb_tz	hip_flexion_r	hip_adduction_r	hip_rotation_r	knee_angle_r	knee_angle_r_beta	ankle_angle_r	subtalar_angle_r	mtp_angle_r	crank_angle_r	hip_flexion_l	hip_adduction_l	hip_rotation_l	knee_angle_l	knee_angle_l_beta	ankle_angle_l	subtalar_angle_l	mtp_angle_l	crank_angle_l	lumbar_extension	lumbar_bending	lumbar_rotation	arm_flex_r	arm_add_r	arm_rot_r	elbow_flex_r	pro_sup_r	wrist_flex_r	wrist_dev_r	arm_flex_l	arm_add_l	arm_rot_l	elbow_flex_l	pro_sup_l	wrist_flex_l	wrist_dev_l
      2.50000000	    -39.27744997	     -1.76366653	    -14.29060885	      0.32560787	      1.08703201	     -0.21009176	      0.00000000	      0.50000000	      0.00000000	      0.25000000	     72.43556777	      7.79051598	     -1.35794873	     55.53922826	      0.96934240	     11.48205259	     -6.14104336	      0.00000000	      0.00000000	     57.50472219	    -13.15941783	     -0.12668575	     68.44079254	      1.19451717	    -24.37397192	    -19.09974294	      0.00000000	      0.00000000	    -57.31705493	      0.67325322	      8.16633541	     56.76868424	    -27.17659031	     39.44126424	    116.10109757	     52.34259253	      0.00000000	      0.00000000	     24.34234771	    -19.69399652	     -6.63941582	    115.58503189	     50.38401717	      0.00000000	      0.00000000
      2.50500000	    -39.22746130	     -1.46615375	    -14.05989295	      0.32521381	      1.08537100	     -0.21092720	      0.00000000	      0.50000000	      0.00000000	      0.25000000	     71.78533826	      7.26743692	     -1.46723282	     54.10346368	      0.94428358	     10.40600132	     -5.72492605	      0.00000000	      0.00000000	     58.34105733	    -12.83249480	     -0.16991644	     70.35295420	      1.22789069	    -23.48472905	    -19.05071916	      0.00000000	      0.00000000	    -57.10563086	      0.69894734	      7.70582029	     55.99367770	    -26.40836380	     38.20967702	    115.68526184	     52.22585470	      0.00000000	      0.00000000	     24.14009810	    -19.80641893	     -6.85565085	    115.53620832	     50.45828285	      0.00000000	      0.00000000
      2.51000000	    -38.92384142	     -0.94553953	    -13.80732691	      0.32498159	      1.08378431	     -0.21177302	      0.00000000	      0.50000000	      0.00000000	      0.25000000	     70.99491764	      6.59701533	     -1.29552604	     52.87920792	      0.92291628	      9.55085801	     -5.20170289	      0.00000000	      0.00000000	     58.92589185	    -12.30864893	     -0.46041438	     72.21736133	      1.26043073	    -23.03756024	    -19.36768901	      0.00000000	      0.00000000	    -57.11503230	      0.54178694	      7.12605290	     55.84290579	    -26.40183177	     38.13031198	    115.73979753	     52.24033925	      0.00000000	      0.00000000	     24.19499633	    -19.74318147	     -6.79849979	    115.50061311	     50.47267736	      0.00000000	      0.00000000
      2.51500000	    -38.83355741	     -0.75800759	    -13.61049935	      0.32473005	      1.08185146	     -0.21263567	      0.00000000	      0.50000000	      0.00000000	      0.25000000	     70.30354571	      6.11261623	     -1.52121323	     51.51108741	      0.89903808	      8.34099004	     -4.68792752	      0.00000000	      0.00000000	     59.84928883	    -12.09598415	     -0.38928091	     74.29340087	      1.29666446	    -21.99750720	    -19.08001688	      0.00000000	      0.00000000	    -56.98061615	      0.67347901	      6.89110541	     55.43805602	    -25.88896157	     37.58822531	    115.91278974	     52.29761682	      0.00000000	      0.00000000	     24.03817977	    -19.78135705	     -6.88678952	    115.65876472	     50.59177378	      0.00000000	      0.00000000
      2.52000000	    -38.47072722	     -0.31263795	    -13.42951004	      0.32463530	      1.08005176	     -0.21329880	      0.00000000	      0.50000000	      0.00000000	      0.25000000	     69.48126072	      5.46648485	     -1.53789254	     50.40488893	      0.87973127	      7.27080099	     -4.00759699	      0.00000000	      0.00000000	     60.50513027	    -11.72708637	     -0.61921416	     76.32859679	      1.33218533	    -21.58233760	    -19.22747368	      0.00000000	      0.00000000	    -57.00325130	      0.45588597	      6.37623013	     55.28726469	    -25.93391096	     37.56863009	    115.94546615	     52.31954873	      0.00000000	      0.00000000	     24.10426538	    -19.75685053	     -6.84803331	    115.63530127	     50.60957280	      0.00000000	      0.00000000
      2.52500000	    -38.22881402	     -0.26320148	    -13.30040185	      0.32470430	      1.07803765	     -0.21359169	      0.00000000	      0.50000000	      0.00000000	      0.25000000	     68.58907361	      5.16458672	     -1.75271869	     49.13421385	      0.85755381	      6.18192288	     -3.59141930	      0.00000000	      0.00000000	     61.39052102	    -11.80832326	     -0.53299568	     78.55633223	      1.37106665	    -20.59494202	    -18.44025093	      0.00000000	      0.00000000	    -56.99533558	      0.55458549	      6.36358899	     54.94978798	    -25.70054696	     37.37987165	    116.03168939	     52.37821863	      0.00000000	      0.00000000	     24.02423082	    -19.82792616	     -6.86270320	    115.71044524	     50.69090350	      0.00000000	      0.00000000
      2.53000000	    -37.84203618	      0.16184601	    -13.13544935	      0.32469984	      1.07592986	     -0.21447661	      0.00000000	      0.50000000	      0.00000000	      0.25000000	     67.75348253	      4.57915602	     -1.59620554	     48.12863299	      0.84000311	      5.40015311	     -3.23540576	      0.00000000	      0.00000000	     62.11312846	    -11.43904972	     -0.67467372	     80.69566817	      1.40840510	    -19.94790669	    -18.26567090	      0.00000000	      0.00000000	    -57.00107717	      0.40946896	      5.96343733	     54.72735487	    -25.65967610	     37.23405219	    116.08201222	     52.40817156	      0.00000000	      0.00000000	     24.01214024	    -19.84308741	     -6.78889852	    115.69294064	     50.73547227	      0.00000000	      0.00000000
      2.53500000	    -37.46384323	      0.50801353	    -12.96431753	      0.32471036	      1.07371437	     -0.21521550	      0.00000000	      0.50000000	      0.00000000	      0.25000000	     66.88432357	      4.08294464	     -1.48918273	     47.06235511	      0.82139305	      3.96859901	     -2.57453684	      0.00000000	      0.00000000	     62.89079855	    -11.16118628	     -0.74497200	     82.86585224	      1.44628196	    -19.25626270	    -17.85596678	      0.00000000	      0.00000000	    -56.97607146	      0.29426834	      5.62291907	     54.45372842	    -25.57331247	     37.08494965	    116.09765632	     52.43330146	      0.00000000	      0.00000000	     23.99371180	    -19.85790172	     -6.66945446	    115.67485481	     50.78582674	      0.00000000	      0.00000000
      2.54000000	    -37.06189841	      0.75755043	    -12.81784505	      0.32481641	      1.07129442	     -0.21584467	      0.00000000	      0.50000000	      0.00000000	      0.25000000	     65.98488928	      3.63738453	     -1.46363771	     46.11136354	      0.80479512	      3.02748511	     -2.23747776	      0.00000000	      0.00000000	     63.68360970	    -11.01256037	     -0.74151559	     85.11551837	      1.48554604	    -18.34989564	    -17.03756231	      0.00000000	      0.00000000	    -56.94759638	      0.24945186	      5.38423096	     54.03378127	    -25.43918719	     36.79938871	    116.03726223	     52.45734598	      0.00000000	      0.00000000	     23.91456811	    -19.88195950	     -6.41690658	    115.63720706	     50.87578970	      0.00000000	      0.00000000
      2.54500000	    -36.51008076	      1.06523372	    -12.60105614	      0.32512010	      1.06886988	     -0.21641699	      0.00000000	      0.50000000	      0.00000000	      0.25000000	     65.00015145	      3.08802465	     -1.35176333	     45.34959816	      0.79149980	      2.16009232	     -1.85787828	      0.00000000	      0.00000000	     64.30751961	    -10.75651419	     -0.79039372	     87.31297772	      1.52389894	    -17.45620513	    -16.26870002	      0.00000000	      0.00000000	    -57.00411349	      0.15622328	      5.07120808	     53.55991906	    -25.34271578	     36.44465924	    115.97980970	     52.48782606	      0.00000000	      0.00000000	     23.91818130	    -19.94676927	     -6.03488632	    115.53216488	     50.98039102	      0.00000000	      0.00000000
      2.55000000	    -35.98810590	      1.51185198	    -12.40340167	      0.32534171	      1.06642531	     -0.21723961	      0.00000000	      0.50000000	      0.00000000	      0.25000000	     63.99517531	      2.46723677	     -1.08264078	     44.42395635	      0.77534431	      1.29200029	     -1.44495012	      0.00000000	      0.00000000	     64.94228002	    -10.37981117	     -1.01264554	     89.37895407	      1.55995703	    -16.93415960	    -16.16088131	      0.00000000	      0.00000000	    -57.00555223	      0.00811824	      4.62883898	     53.25695763	    -25.37013078	     36.34316727	    115.95202182	     52.50021164	      0.00000000	      0.00000000	     23.91040605	    -19.93731232	     -5.81417657	    115.43159303	     51.01410868	      0.00000000	      0.00000000
      2.55500000	    -35.36632616	      1.84902080	    -12.15871665	      0.32568600	      1.06391186	     -0.21788638	      0.00000000	      0.50000000	      0.00000000	      0.25000000	     62.87391326	      1.87632346	     -0.85727894	     43.62630261	      0.76142262	      0.55758029	     -1.15210340	      0.00000000	      0.00000000	     65.49441337	    -10.10560489	     -1.13109024	     91.47874141	      1.59660523	    -16.17268066	    -15.61351363	      0.00000000	      0.00000000	    -57.05448979	     -0.08719258	      4.28662144	     52.77441170	    -25.35378019	     36.11828121	    115.87640386	     52.50205935	      0.00000000	      0.00000000	     23.84823707	    -19.99755457	     -5.48213211	    115.27053943	     51.06044834	      0.00000000	      0.00000000
